<mxfile host="app.diagrams.net" modified="2022-09-15T06:56:12.904Z" agent="5.0 (Macintosh; Intel Mac OS X 10_15_7) AppleWebKit/537.36 (KHTML, like Gecko) Chrome/105.0.0.0 Safari/537.36" etag="_DYtU29VBAUSbcyzBVwb" version="20.2.3" type="github">
  <diagram id="p7Yx6SKq140OhYaxNJ3j" name="Page-1">
    <mxGraphModel dx="868" dy="589" grid="1" gridSize="10" guides="1" tooltips="1" connect="1" arrows="1" fold="1" page="1" pageScale="1" pageWidth="850" pageHeight="1100" math="0" shadow="0">
      <root>
        <mxCell id="0" />
        <mxCell id="1" parent="0" />
        <mxCell id="hQFpgfugJIjpB1pTZ4c0-16" style="edgeStyle=orthogonalEdgeStyle;rounded=0;orthogonalLoop=1;jettySize=auto;html=1;exitX=0.5;exitY=1;exitDx=0;exitDy=0;entryX=0.5;entryY=0;entryDx=0;entryDy=0;fontSize=12;" edge="1" parent="1" source="hQFpgfugJIjpB1pTZ4c0-1" target="hQFpgfugJIjpB1pTZ4c0-15">
          <mxGeometry relative="1" as="geometry" />
        </mxCell>
        <mxCell id="hQFpgfugJIjpB1pTZ4c0-28" value="YES" style="edgeLabel;html=1;align=center;verticalAlign=middle;resizable=0;points=[];fontSize=12;" vertex="1" connectable="0" parent="hQFpgfugJIjpB1pTZ4c0-16">
          <mxGeometry x="-0.2333" y="3" relative="1" as="geometry">
            <mxPoint as="offset" />
          </mxGeometry>
        </mxCell>
        <mxCell id="hQFpgfugJIjpB1pTZ4c0-19" style="edgeStyle=orthogonalEdgeStyle;rounded=0;orthogonalLoop=1;jettySize=auto;html=1;exitX=1;exitY=0.5;exitDx=0;exitDy=0;fontSize=12;" edge="1" parent="1" source="hQFpgfugJIjpB1pTZ4c0-1" target="hQFpgfugJIjpB1pTZ4c0-14">
          <mxGeometry relative="1" as="geometry" />
        </mxCell>
        <mxCell id="hQFpgfugJIjpB1pTZ4c0-27" value="NO" style="edgeLabel;html=1;align=center;verticalAlign=middle;resizable=0;points=[];fontSize=12;" vertex="1" connectable="0" parent="hQFpgfugJIjpB1pTZ4c0-19">
          <mxGeometry x="-0.6458" y="-1" relative="1" as="geometry">
            <mxPoint y="1" as="offset" />
          </mxGeometry>
        </mxCell>
        <mxCell id="hQFpgfugJIjpB1pTZ4c0-1" value="Have you decided primary compute platform for a workloads ?" style="rounded=1;whiteSpace=wrap;html=1;" vertex="1" parent="1">
          <mxGeometry x="110" y="380" width="120" height="60" as="geometry" />
        </mxCell>
        <mxCell id="hQFpgfugJIjpB1pTZ4c0-4" style="edgeStyle=orthogonalEdgeStyle;rounded=0;orthogonalLoop=1;jettySize=auto;html=1;exitX=0.5;exitY=1;exitDx=0;exitDy=0;" edge="1" parent="1" source="hQFpgfugJIjpB1pTZ4c0-3" target="hQFpgfugJIjpB1pTZ4c0-1">
          <mxGeometry relative="1" as="geometry" />
        </mxCell>
        <mxCell id="hQFpgfugJIjpB1pTZ4c0-26" value="NO" style="edgeLabel;html=1;align=center;verticalAlign=middle;resizable=0;points=[];fontSize=12;" vertex="1" connectable="0" parent="hQFpgfugJIjpB1pTZ4c0-4">
          <mxGeometry x="-0.025" relative="1" as="geometry">
            <mxPoint as="offset" />
          </mxGeometry>
        </mxCell>
        <mxCell id="hQFpgfugJIjpB1pTZ4c0-6" style="edgeStyle=orthogonalEdgeStyle;rounded=0;orthogonalLoop=1;jettySize=auto;html=1;exitX=0.75;exitY=1;exitDx=0;exitDy=0;entryX=0.5;entryY=0;entryDx=0;entryDy=0;" edge="1" parent="1" source="hQFpgfugJIjpB1pTZ4c0-3" target="hQFpgfugJIjpB1pTZ4c0-8">
          <mxGeometry relative="1" as="geometry">
            <mxPoint x="430" y="380" as="targetPoint" />
            <Array as="points">
              <mxPoint x="320" y="360" />
              <mxPoint x="430" y="360" />
            </Array>
          </mxGeometry>
        </mxCell>
        <mxCell id="hQFpgfugJIjpB1pTZ4c0-25" value="YES" style="edgeLabel;html=1;align=center;verticalAlign=middle;resizable=0;points=[];fontSize=12;" vertex="1" connectable="0" parent="hQFpgfugJIjpB1pTZ4c0-6">
          <mxGeometry x="-0.1059" y="-1" relative="1" as="geometry">
            <mxPoint y="1" as="offset" />
          </mxGeometry>
        </mxCell>
        <mxCell id="hQFpgfugJIjpB1pTZ4c0-3" value="Do you want to run machine learning workload ?" style="rounded=1;whiteSpace=wrap;html=1;" vertex="1" parent="1">
          <mxGeometry x="230" y="280" width="120" height="60" as="geometry" />
        </mxCell>
        <mxCell id="hQFpgfugJIjpB1pTZ4c0-8" value="Amazon SageMaker Savings Plans" style="ellipse;whiteSpace=wrap;html=1;" vertex="1" parent="1">
          <mxGeometry x="385" y="400" width="90" height="80" as="geometry" />
        </mxCell>
        <mxCell id="hQFpgfugJIjpB1pTZ4c0-18" style="edgeStyle=orthogonalEdgeStyle;rounded=0;orthogonalLoop=1;jettySize=auto;html=1;exitX=0.5;exitY=1;exitDx=0;exitDy=0;entryX=0.5;entryY=0;entryDx=0;entryDy=0;fontSize=12;" edge="1" parent="1" source="hQFpgfugJIjpB1pTZ4c0-10" target="hQFpgfugJIjpB1pTZ4c0-12">
          <mxGeometry relative="1" as="geometry" />
        </mxCell>
        <mxCell id="hQFpgfugJIjpB1pTZ4c0-34" value="YES" style="edgeLabel;html=1;align=center;verticalAlign=middle;resizable=0;points=[];fontSize=12;" vertex="1" connectable="0" parent="hQFpgfugJIjpB1pTZ4c0-18">
          <mxGeometry x="-0.3" y="-3" relative="1" as="geometry">
            <mxPoint as="offset" />
          </mxGeometry>
        </mxCell>
        <mxCell id="hQFpgfugJIjpB1pTZ4c0-35" style="edgeStyle=orthogonalEdgeStyle;rounded=0;orthogonalLoop=1;jettySize=auto;html=1;exitX=1;exitY=0.5;exitDx=0;exitDy=0;fontSize=12;" edge="1" parent="1" source="hQFpgfugJIjpB1pTZ4c0-10">
          <mxGeometry relative="1" as="geometry">
            <mxPoint x="320" y="600" as="targetPoint" />
          </mxGeometry>
        </mxCell>
        <mxCell id="hQFpgfugJIjpB1pTZ4c0-36" value="NO" style="edgeLabel;html=1;align=center;verticalAlign=middle;resizable=0;points=[];fontSize=12;" vertex="1" connectable="0" parent="hQFpgfugJIjpB1pTZ4c0-35">
          <mxGeometry x="-0.0222" y="-1" relative="1" as="geometry">
            <mxPoint y="1" as="offset" />
          </mxGeometry>
        </mxCell>
        <mxCell id="hQFpgfugJIjpB1pTZ4c0-10" value="Are you going to use single instance family for all your workloads ?" style="rounded=1;whiteSpace=wrap;html=1;" vertex="1" parent="1">
          <mxGeometry x="110" y="570" width="120" height="60" as="geometry" />
        </mxCell>
        <mxCell id="hQFpgfugJIjpB1pTZ4c0-12" value="&lt;span style=&quot;box-sizing: border-box; font-family: AmazonEmberBold, &amp;quot;Helvetica Neue Bold&amp;quot;, &amp;quot;Helvetica Neue&amp;quot;, Helvetica, Arial, sans-serif; color: rgb(35, 47, 62); text-align: left;&quot;&gt;&lt;font style=&quot;font-size: 12px;&quot;&gt;EC2 Instance Savings Plans&lt;/font&gt;&lt;/span&gt;" style="ellipse;whiteSpace=wrap;html=1;" vertex="1" parent="1">
          <mxGeometry x="125" y="680" width="90" height="80" as="geometry" />
        </mxCell>
        <mxCell id="hQFpgfugJIjpB1pTZ4c0-14" value="&lt;span style=&quot;box-sizing: border-box; font-family: AmazonEmberBold, &amp;quot;Helvetica Neue Bold&amp;quot;, &amp;quot;Helvetica Neue&amp;quot;, Helvetica, Arial, sans-serif; color: rgb(35, 47, 62); text-align: left;&quot;&gt;&lt;font style=&quot;font-size: 12px;&quot;&gt;Compute Savings Plans&lt;/font&gt;&lt;/span&gt;" style="ellipse;whiteSpace=wrap;html=1;fontSize=12;" vertex="1" parent="1">
          <mxGeometry x="270" y="680" width="95" height="80" as="geometry" />
        </mxCell>
        <mxCell id="hQFpgfugJIjpB1pTZ4c0-17" style="edgeStyle=orthogonalEdgeStyle;rounded=0;orthogonalLoop=1;jettySize=auto;html=1;exitX=0.5;exitY=1;exitDx=0;exitDy=0;fontSize=12;" edge="1" parent="1" source="hQFpgfugJIjpB1pTZ4c0-15" target="hQFpgfugJIjpB1pTZ4c0-10">
          <mxGeometry relative="1" as="geometry" />
        </mxCell>
        <mxCell id="hQFpgfugJIjpB1pTZ4c0-33" value="YES" style="edgeLabel;html=1;align=center;verticalAlign=middle;resizable=0;points=[];fontSize=12;" vertex="1" connectable="0" parent="hQFpgfugJIjpB1pTZ4c0-17">
          <mxGeometry x="0.38" y="1" relative="1" as="geometry">
            <mxPoint x="-1" y="-8" as="offset" />
          </mxGeometry>
        </mxCell>
        <mxCell id="hQFpgfugJIjpB1pTZ4c0-20" style="edgeStyle=orthogonalEdgeStyle;rounded=0;orthogonalLoop=1;jettySize=auto;html=1;exitX=1;exitY=0.5;exitDx=0;exitDy=0;fontSize=12;" edge="1" parent="1" source="hQFpgfugJIjpB1pTZ4c0-15">
          <mxGeometry relative="1" as="geometry">
            <mxPoint x="320" y="500" as="targetPoint" />
          </mxGeometry>
        </mxCell>
        <mxCell id="hQFpgfugJIjpB1pTZ4c0-32" value="NO" style="edgeLabel;html=1;align=center;verticalAlign=middle;resizable=0;points=[];fontSize=12;" vertex="1" connectable="0" parent="hQFpgfugJIjpB1pTZ4c0-20">
          <mxGeometry x="0.0222" y="-1" relative="1" as="geometry">
            <mxPoint y="1" as="offset" />
          </mxGeometry>
        </mxCell>
        <mxCell id="hQFpgfugJIjpB1pTZ4c0-15" value="Is your chosen compute platform EC2?" style="rounded=1;whiteSpace=wrap;html=1;" vertex="1" parent="1">
          <mxGeometry x="110" y="470" width="120" height="60" as="geometry" />
        </mxCell>
        <mxCell id="hQFpgfugJIjpB1pTZ4c0-30" value="NO" style="edgeStyle=orthogonalEdgeStyle;rounded=0;orthogonalLoop=1;jettySize=auto;html=1;exitX=1;exitY=0.5;exitDx=0;exitDy=0;entryX=0;entryY=0.5;entryDx=0;entryDy=0;fontSize=12;" edge="1" parent="1" source="hQFpgfugJIjpB1pTZ4c0-23">
          <mxGeometry relative="1" as="geometry">
            <mxPoint x="475" y="90" as="targetPoint" />
          </mxGeometry>
        </mxCell>
        <mxCell id="hQFpgfugJIjpB1pTZ4c0-42" style="edgeStyle=orthogonalEdgeStyle;rounded=0;orthogonalLoop=1;jettySize=auto;html=1;exitX=0.5;exitY=1;exitDx=0;exitDy=0;entryX=0.5;entryY=0;entryDx=0;entryDy=0;fontSize=12;" edge="1" parent="1" source="hQFpgfugJIjpB1pTZ4c0-23" target="hQFpgfugJIjpB1pTZ4c0-40">
          <mxGeometry relative="1" as="geometry" />
        </mxCell>
        <mxCell id="hQFpgfugJIjpB1pTZ4c0-56" value="YES" style="edgeLabel;html=1;align=center;verticalAlign=middle;resizable=0;points=[];fontSize=12;fontFamily=Helvetica;" vertex="1" connectable="0" parent="hQFpgfugJIjpB1pTZ4c0-42">
          <mxGeometry x="-0.25" y="-3" relative="1" as="geometry">
            <mxPoint as="offset" />
          </mxGeometry>
        </mxCell>
        <mxCell id="hQFpgfugJIjpB1pTZ4c0-23" value="Are you ready for 1 to 3 years usage commitment ?" style="rounded=1;whiteSpace=wrap;html=1;" vertex="1" parent="1">
          <mxGeometry x="230" y="60" width="120" height="60" as="geometry" />
        </mxCell>
        <mxCell id="hQFpgfugJIjpB1pTZ4c0-43" style="edgeStyle=orthogonalEdgeStyle;rounded=0;orthogonalLoop=1;jettySize=auto;html=1;entryX=0.5;entryY=0;entryDx=0;entryDy=0;fontSize=12;" edge="1" parent="1" source="hQFpgfugJIjpB1pTZ4c0-40" target="hQFpgfugJIjpB1pTZ4c0-3">
          <mxGeometry relative="1" as="geometry" />
        </mxCell>
        <mxCell id="hQFpgfugJIjpB1pTZ4c0-55" value="YES" style="edgeLabel;html=1;align=center;verticalAlign=middle;resizable=0;points=[];fontSize=12;fontFamily=Helvetica;" vertex="1" connectable="0" parent="hQFpgfugJIjpB1pTZ4c0-43">
          <mxGeometry x="-0.3" y="-3" relative="1" as="geometry">
            <mxPoint as="offset" />
          </mxGeometry>
        </mxCell>
        <mxCell id="hQFpgfugJIjpB1pTZ4c0-44" style="edgeStyle=orthogonalEdgeStyle;rounded=0;orthogonalLoop=1;jettySize=auto;html=1;exitX=1;exitY=0.5;exitDx=0;exitDy=0;entryX=0;entryY=0.5;entryDx=0;entryDy=0;fontSize=12;" edge="1" parent="1" source="hQFpgfugJIjpB1pTZ4c0-40" target="hQFpgfugJIjpB1pTZ4c0-41">
          <mxGeometry relative="1" as="geometry" />
        </mxCell>
        <mxCell id="hQFpgfugJIjpB1pTZ4c0-54" value="NO" style="edgeLabel;html=1;align=center;verticalAlign=middle;resizable=0;points=[];fontSize=12;fontFamily=Helvetica;" vertex="1" connectable="0" parent="hQFpgfugJIjpB1pTZ4c0-44">
          <mxGeometry x="-0.1294" relative="1" as="geometry">
            <mxPoint as="offset" />
          </mxGeometry>
        </mxCell>
        <mxCell id="hQFpgfugJIjpB1pTZ4c0-40" value="Able to commit to spend specific dollar amount per hour" style="rounded=1;whiteSpace=wrap;html=1;fontSize=12;" vertex="1" parent="1">
          <mxGeometry x="230" y="160" width="120" height="60" as="geometry" />
        </mxCell>
        <mxCell id="hQFpgfugJIjpB1pTZ4c0-48" style="edgeStyle=orthogonalEdgeStyle;rounded=0;orthogonalLoop=1;jettySize=auto;html=1;exitX=0.5;exitY=1;exitDx=0;exitDy=0;entryX=0.5;entryY=0;entryDx=0;entryDy=0;fontFamily=Helvetica;fontSize=12;" edge="1" parent="1" source="hQFpgfugJIjpB1pTZ4c0-41" target="hQFpgfugJIjpB1pTZ4c0-45">
          <mxGeometry relative="1" as="geometry" />
        </mxCell>
        <mxCell id="hQFpgfugJIjpB1pTZ4c0-53" value="YES" style="edgeLabel;html=1;align=center;verticalAlign=middle;resizable=0;points=[];fontSize=12;fontFamily=Helvetica;" vertex="1" connectable="0" parent="hQFpgfugJIjpB1pTZ4c0-48">
          <mxGeometry x="-0.5333" y="1" relative="1" as="geometry">
            <mxPoint as="offset" />
          </mxGeometry>
        </mxCell>
        <mxCell id="hQFpgfugJIjpB1pTZ4c0-41" value="Able to commit to use instance over period of time" style="rounded=1;whiteSpace=wrap;html=1;fontSize=12;" vertex="1" parent="1">
          <mxGeometry x="520" y="160" width="120" height="60" as="geometry" />
        </mxCell>
        <mxCell id="hQFpgfugJIjpB1pTZ4c0-49" style="edgeStyle=orthogonalEdgeStyle;rounded=0;orthogonalLoop=1;jettySize=auto;html=1;exitX=0.5;exitY=1;exitDx=0;exitDy=0;entryX=0.5;entryY=0;entryDx=0;entryDy=0;fontFamily=Helvetica;fontSize=12;" edge="1" parent="1" source="hQFpgfugJIjpB1pTZ4c0-45" target="hQFpgfugJIjpB1pTZ4c0-46">
          <mxGeometry relative="1" as="geometry" />
        </mxCell>
        <mxCell id="hQFpgfugJIjpB1pTZ4c0-51" value="YES" style="edgeLabel;html=1;align=center;verticalAlign=middle;resizable=0;points=[];fontSize=12;fontFamily=Helvetica;" vertex="1" connectable="0" parent="hQFpgfugJIjpB1pTZ4c0-49">
          <mxGeometry x="0.0444" y="1" relative="1" as="geometry">
            <mxPoint as="offset" />
          </mxGeometry>
        </mxCell>
        <mxCell id="hQFpgfugJIjpB1pTZ4c0-50" style="edgeStyle=orthogonalEdgeStyle;rounded=0;orthogonalLoop=1;jettySize=auto;html=1;exitX=1;exitY=0.5;exitDx=0;exitDy=0;fontFamily=Helvetica;fontSize=12;" edge="1" parent="1" source="hQFpgfugJIjpB1pTZ4c0-45" target="hQFpgfugJIjpB1pTZ4c0-47">
          <mxGeometry relative="1" as="geometry" />
        </mxCell>
        <mxCell id="hQFpgfugJIjpB1pTZ4c0-52" value="NO" style="edgeLabel;html=1;align=center;verticalAlign=middle;resizable=0;points=[];fontSize=12;fontFamily=Helvetica;" vertex="1" connectable="0" parent="hQFpgfugJIjpB1pTZ4c0-50">
          <mxGeometry x="-0.3333" y="-1" relative="1" as="geometry">
            <mxPoint as="offset" />
          </mxGeometry>
        </mxCell>
        <mxCell id="hQFpgfugJIjpB1pTZ4c0-45" value="Are you going to use fixed instance family ?" style="rounded=1;whiteSpace=wrap;html=1;fontSize=12;" vertex="1" parent="1">
          <mxGeometry x="520" y="250" width="120" height="60" as="geometry" />
        </mxCell>
        <mxCell id="hQFpgfugJIjpB1pTZ4c0-46" value="&lt;span style=&quot;color: rgb(22, 25, 31); text-align: left; background-color: rgb(250, 250, 250);&quot;&gt;&lt;font style=&quot;font-size: 12px;&quot;&gt;Standard Reserved Instance&lt;/font&gt;&lt;/span&gt;" style="ellipse;whiteSpace=wrap;html=1;fontSize=12;" vertex="1" parent="1">
          <mxGeometry x="530" y="400" width="100" height="80" as="geometry" />
        </mxCell>
        <mxCell id="hQFpgfugJIjpB1pTZ4c0-47" value="&lt;span style=&quot;color: rgb(22, 25, 31); text-align: left; background-color: rgb(250, 250, 250);&quot;&gt;&lt;font style=&quot;font-size: 12px;&quot;&gt;Convertible Reserved Instance&lt;/font&gt;&lt;/span&gt;" style="ellipse;whiteSpace=wrap;html=1;fontSize=12;" vertex="1" parent="1">
          <mxGeometry x="680" y="400" width="100" height="80" as="geometry" />
        </mxCell>
        <mxCell id="hQFpgfugJIjpB1pTZ4c0-57" value="On-Demand EC2 instances" style="shape=image;html=1;verticalAlign=top;verticalLabelPosition=bottom;labelBackgroundColor=#ffffff;imageAspect=0;aspect=fixed;image=https://cdn1.iconfinder.com/data/icons/ionicons-fill-vol-2/512/stop-circle-128.png;fontFamily=Helvetica;fontSize=12;" vertex="1" parent="1">
          <mxGeometry x="475" y="60" width="60" height="60" as="geometry" />
        </mxCell>
      </root>
    </mxGraphModel>
  </diagram>
</mxfile>
